<?xml version="1.0" encoding="UTF-8"?>
<svg id="Layer_1" data-name="Layer 1" xmlns="http://www.w3.org/2000/svg" viewBox="0 0 343.95 516.61">
  <defs>
    <style>
      .cls-1 {
        fill: #231f20;
      }
    </style>
  </defs>
  <path class="cls-1" d="M219.61,15.95c-10.74-10.22-26.08-14.27-40.64-12.76-15.42,1.6-29.36,9.16-40.99,19.15-24.78,21.28-39.79,52.17-49.99,82.63-5.64,16.84-10.21,34.12-13.54,51.57s-5.47,36.34-5.12,54.69c.62,32.5,8.96,65.64,27.85,92.47,9.26,13.15,20.91,24.73,34.73,33.04,14.53,8.74,31.11,13.13,47.94,14.3s34.25-.53,50.61-4.82c16.1-4.22,31.13-11.57,43.8-22.43,25.33-21.71,39.06-53.49,46.11-85.46,7.76-35.21,10.4-72.68,3.19-108.2-5.66-27.88-18.39-54.05-36.48-75.97-17.68-21.42-40.63-38.59-66.68-48.38-6.29-2.36-12.74-4.27-19.31-5.7-3.14-.69-4.48,4.13-1.33,4.82,26.23,5.74,50.21,19.23,69.64,37.64,19.56,18.52,34.65,41.84,43.46,67.3,11.08,32.01,11.67,66.71,7.37,100.02s-12.75,66.01-32.89,92.68c-9,11.92-20.32,22.18-33.49,29.29-14.54,7.85-30.95,11.9-47.3,13.62-16.31,1.71-33.04,1.24-48.92-3.14-15.37-4.23-29.2-12.38-40.75-23.33-22.78-21.59-35.63-51.66-40.42-82.31-5.43-34.75-.27-70.35,8.58-104.09,8.1-30.89,19.08-61.92,38.63-87.57C141.02,22.25,168.75,1.11,198.98,9.84c6.38,1.84,12.28,5.06,17.09,9.64,2.33,2.22,5.87-1.31,3.54-3.54h0Z"/>
  <path class="cls-1" d="M104.01,310.5c-1.92,21.01-5.02,41.9-9.32,62.56-1.23,5.9-2.55,11.77-3.96,17.62l4.18-1.1c-10.76-11.42-26.97-16.71-42.33-17.55-7.98-.44-16.47.75-23.15,5.44-6.29,4.41-10.51,10.99-13.62,17.9-7.1,15.75-10.96,32.93-13.23,49.99S-.19,480.49.06,498.09c.03,2.11.11,4.31,1.78,5.84,1.44,1.32,3.45,1.68,5.34,1.71,4.57.06,9.17-.28,13.74-.4,9.43-.24,18.87-.37,28.3-.41,18.87-.07,37.74.27,56.59,1.02,18.94.75,37.86,1.91,56.74,3.49,2.39.2,4.78.41,7.17.62,1.98.18,4.09.55,5.95-.35,2.05-.99,2.63-3.03,3.2-5.05.61-2.15,1.18-4.31,1.74-6.48,2.24-8.82,4.03-17.74,5.5-26.72,2.97-18.15,4.69-36.47,6.25-54.78,1.61-18.84,3.18-37.69,4.78-56.53.39-4.65.79-9.3,1.18-13.95.11-1.35-1.23-2.5-2.5-2.5-1.45,0-2.39,1.15-2.5,2.5-1.54,18.27-3.08,36.53-4.63,54.8-1.49,17.67-2.86,35.35-5.07,52.95-1.1,8.73-2.42,17.44-4.09,26.08-.83,4.31-1.75,8.6-2.76,12.87-.5,2.1-1.02,4.19-1.57,6.27-.26,1-.54,2.01-.81,3.01-.15.54-.3,1.08-.45,1.62-.09.33-.18,1.14-.42,1.39-.17.18-.5.12-.76.12-1,0-2.02-.15-3.02-.24-2.31-.21-4.62-.4-6.93-.6-4.54-.38-9.07-.73-13.61-1.07-9.08-.66-18.17-1.23-27.26-1.7-18.18-.95-36.38-1.51-54.59-1.7-18.21-.19-36.41,0-54.61.58-2.05.06-4.19.33-6.24.14-.4-.04-1.16-.07-1.38-.42-.15-.23-.04-1.29-.05-1.64-.07-4.23-.09-8.46-.05-12.68.07-8.55.36-17.09,1.02-25.62,1.29-16.71,4.03-33.36,9.2-49.33,2.33-7.19,4.96-14.49,9.09-20.87s9.39-10.48,16.49-12.18,14.94-.94,22.11.55,14.16,3.99,20.35,7.96c2.98,1.91,5.68,4.17,8.11,6.74,1.27,1.35,3.74.7,4.18-1.1,5.06-20.94,8.9-42.17,11.54-63.55.74-5.98,1.38-11.96,1.92-17.96.12-1.35-1.24-2.5-2.5-2.5-1.45,0-2.38,1.15-2.5,2.5h0Z"/>
  <path class="cls-1" d="M195.44,347.02c1.82,7.28,2.06,14.95,2.5,22.41s.71,15.28.78,22.92c.14,15.29-.5,30.59-1.9,45.82s-3.69,30.26-6.48,45.26c-.72,3.86-1.43,7.72-2.07,11.6-.29,1.78-.57,3.55-.82,5.34s-.51,3.53.27,5.2c1.64,3.53,6.25,3.13,9.51,3.34,3.78.24,7.56.42,11.35.54,15.48.5,30.98.16,46.46.43,15.5.27,30.9,1.51,46.3,3.26,7.69.87,15.37,1.83,23.06,2.75,1.8.21,3.6.43,5.4.63,1.92.22,3.98.18,5.4-1.36,1.12-1.22,1.48-2.93,1.96-4.46.54-1.71,1.06-3.43,1.57-5.15,3.94-13.3,7.14-27.68,3.87-41.48-1.58-6.65-4.78-12.68-9.05-17.99-4.09-5.09-9.23-9.82-14.96-12.99-5.82-3.22-12.43-4.39-18.9-2.6-6.1,1.69-11.42,5.54-15.87,9.93-2.25,2.22-4.27,4.63-6.19,7.12l4.66,1.26c-2.62-31.88-5.75-63.71-9.38-95.48-1.04-9.06-2.11-18.11-3.23-27.15-.17-1.34-1.03-2.5-2.5-2.5-1.22,0-2.67,1.15-2.5,2.5,3.92,31.74,7.34,63.55,10.25,95.4.83,9.08,1.62,18.16,2.36,27.24.21,2.61,3.14,3.22,4.66,1.26,6.56-8.49,16.91-17.86,28.55-14.91,5.96,1.51,11.04,5.59,15.33,9.84s8.07,9.3,10.28,15c4.82,12.43,2.73,26.05-.6,38.57-.85,3.2-1.79,6.37-2.77,9.53-.26.85-.53,1.7-.8,2.55-.09.27-.17.55-.26.82-.16.5-.33.27-.08.22-.5.1-1.29-.11-1.8-.17-.98-.11-1.96-.23-2.94-.34-7.36-.86-14.72-1.78-22.08-2.64-14.72-1.72-29.48-3.12-44.3-3.54s-29.5-.11-44.24-.36c-7.33-.12-14.65-.38-21.96-.93-.54-.04-1.81.03-2.08-.41-.25-.41.09-1.62.16-2.09.14-.97.29-1.94.44-2.91.56-3.56,1.19-7.1,1.84-10.64,2.67-14.49,5.08-28.99,6.62-43.66,3.05-29.03,3.55-58.6.72-87.67-.35-3.58-.83-7.15-1.7-10.64-.78-3.12-5.6-1.8-4.82,1.33h0Z"/>
  <path class="cls-1" d="M91.98,300.55c5.81,18.7.59,38.27-3.12,56.83-.96,4.8-1.84,9.61-2.5,14.46-.32,2.4-.54,4.87.82,7.02,1.25,1.97,3.36,3.22,5.28,4.45,8.1,5.16,16.95,9.06,25.98,12.28,18.61,6.64,38.11,11.08,57.54,14.55,19.85,3.54,39.9,5.89,59.98,7.58,20.08,1.7,40.21,2.75,60.33,3.72,2.54.12,5.08.24,7.62.36,1.34.06,2.51-1.2,2.5-2.5-.27-29.21-5.37-58.38-15.06-85.93-2.77-7.87-5.92-15.61-9.4-23.19-.56-1.23-2.34-1.53-3.42-.9-1.26.74-1.46,2.19-.9,3.42,11.9,25.92,19.53,53.88,22.43,82.26.83,8.09,1.27,16.21,1.35,24.34l2.5-2.5c-19.88-.95-39.77-1.9-59.62-3.41-19.67-1.5-39.31-3.53-58.78-6.68-19.37-3.13-38.64-7.31-57.38-13.16-8.91-2.78-17.69-6.04-25.95-10.39-2.06-1.08-4.08-2.23-6.05-3.45-1.49-.92-3.83-1.95-4.73-3.54s-.05-4.35.22-6.07c.37-2.44.8-4.87,1.26-7.29,3.51-18.64,9.06-37.72,5.6-56.79-.42-2.3-.98-4.57-1.68-6.81-.95-3.06-5.78-1.76-4.82,1.33h0Z"/>
  <path class="cls-1" d="M195.87,346.55c-.64,21.07-2.35,42.09-5.1,62.98-.18,1.34,1.28,2.5,2.5,2.5,1.5,0,2.32-1.16,2.5-2.5,2.76-20.89,4.46-41.92,5.1-62.98.1-3.22-4.9-3.22-5,0h0Z"/>
  <path class="cls-1" d="M209.69,16.43c-16.33-3.68-32.21-11.79-49.37-9.42-14.1,1.94-26.38,10.74-34.95,21.79-9.92,12.78-14.71,28.52-17.02,44.35-1.24,8.47-1.87,17.01-2.33,25.55-.49,9.02-.86,18.08-.2,27.1,1.16,15.84,5.75,32.1,16.94,43.88,10.15,10.68,26.52,16.63,40.86,11.5,7.6-2.72,13.86-8.09,19.08-14.11s9.1-12.11,12.45-18.89c6.78-13.75,10.51-28.77,13.03-43.83,2.92-17.45,4.7-35.14,5.89-52.78.58-8.54.92-17.39-1.65-25.68-2.14-6.92-6.52-13.32-12.81-17.07-3.01-1.79-6.36-2.82-9.86-3.03-3.21-.19-3.2,4.81,0,5,6.22.37,11.51,4.63,14.76,9.72,4.1,6.44,5.01,14.21,4.96,21.69-.05,8.59-.93,17.22-1.74,25.77s-1.77,17.1-2.95,25.61c-2,14.43-4.73,28.9-9.87,42.58s-12.57,26.43-23.81,35.18c-5.65,4.39-12.3,6.86-19.48,6.64s-13.5-2.65-19.12-6.49c-11.88-8.12-18.08-22.41-20.53-36.15-1.5-8.45-1.67-17.09-1.44-25.65s.69-16.65,1.44-24.94c1.4-15.44,4.27-31.35,12.03-44.99,6.39-11.23,16.29-21.25,28.61-25.73,6.72-2.44,13.79-3.01,20.86-2.05,7.98,1.08,15.67,3.74,23.34,6.09,3.81,1.17,7.64,2.28,11.53,3.16,3.13.71,4.47-4.11,1.33-4.82h0Z"/>
  <path class="cls-1" d="M252.21,40.34c2.19-2.61,1.25-6.55-1.81-8.06-3.34-1.64-7.23.13-10.27,1.64-5.38,2.68-9.98,6.82-13.75,11.46-3.97,4.91-7.18,10.35-9.96,16.01-3.19,6.49-5.95,13.19-8.26,20.04-4.65,13.79-7.42,28.23-8.28,42.75-.86,14.51.23,29.54,5.54,43.19,4.56,11.7,12.1,22.34,22.58,29.43,6,4.06,13.11,6.99,20.2,3.94,5.72-2.46,10.75-7.19,14.72-11.9,8.54-10.13,13.52-22.71,16.02-35.61,2.82-14.53,3.13-29.58,3.17-44.35.04-13.9-.87-28.19-5.75-41.34-4.88-13.15-13.82-23.84-23.67-33.6-2.36-2.34-4.76-4.63-7.16-6.91s-5.87,1.31-3.54,3.54c9.23,8.79,18.67,17.75,25.1,28.88s8.95,24.04,9.7,36.8c.39,6.56.36,13.14.22,19.71-.15,7.05-.36,14.1-.94,21.13-1.05,12.8-3.49,25.75-9.47,37.24-2.63,5.06-5.87,9.79-9.86,13.88-2,2.05-4.16,3.96-6.51,5.61s-5.18,3.3-8.28,3.28-6.14-1.4-8.82-2.97c-2.38-1.39-4.63-2.99-6.72-4.78-4.36-3.75-8.06-8.19-11.07-13.09-6.71-10.91-9.77-23.6-10.53-36.3-.8-13.53.57-27.25,3.5-40.47s7.35-25.82,13.48-37.71c5.02-9.73,11.8-19.72,22.22-24.2,1.07-.46,2.44-1.09,3.65-.99.4.03.5.1.67.27l.15.26s-.04-.08-.01-.13c.33.1-.49.62.2-.21-.87,1.03-1.01,2.52,0,3.54.89.89,2.66,1.04,3.54,0h0Z"/>
  <path class="cls-1" d="M226.92,88.62c-2.55,1.75-5.26,3.71-6.67,6.55-1.71,3.48-1.14,7.16.42,10.57,1.35,2.95,3.28,6.26,5.97,8.16,2.85,2.02,6.61,1.2,8.37-1.81.72-1.24,1.07-2.66,1.27-4.06.29-2.03.26-4.04-1.5-5.42-1.18-.92-2.74-1.33-4.15-1.79-.5-.16-1.25-.41-1.59-.56-.26-.12-1.08-.63-1.12-.67-.26-.23-.49-.45-.51-.97-.02-.45.23-1.01.46-1.43.88-1.65,2.73-2.92,2.13-4.98-.55-1.9-2.66-2.84-4.5-2.49s-2.91,1.82-3.52,3.45c-1.37,3.62-1.9,8.22-.1,11.76,1.63,3.21,5.49,5.35,9.04,4.25,1.31-.41,2.09-1.73,1.75-3.08-.5-1.94-1.41-3.58-2.63-5.16-.83-1.07-2.66-.87-3.54,0-1.05,1.05-.83,2.47,0,3.54.67.86,1.07,1.9,1.34,2.95l1.75-3.08c-.81.25-1.45.11-2.19-.45-1.01-.78-1.48-1.8-1.63-3.05-.17-1.45.1-2.93.44-4.33.13-.54.44-1.21.46-1.73.05-1.21.23-.08.08-.3-.23.14-.49.16-.77.07-.49-.25-.76-.71-.82-1.37l.73-1.77c-2.56,3.04-4.99,7.26-2.13,10.96,1.07,1.39,2.57,2.16,4.18,2.78.41.16,3.85,1.24,3.8,1.38s-.3-.51-.26-.51c.02,0-.03.77-.03.7-.03.4-.02.24-.1.69-.06.34-.13.68-.22,1.01-.05.19-.1.38-.17.56-.1.28-.05.17-.13.33s-.17.33-.28.48c-.18.25-.05.06-.02.02-.36.41-.2.16-.1.12-.02,0-.41.2-.14.09-.03.01-.38.04-.26.05.07,0,.27.06,0-.03-.19-.06-.57-.23-.87-.47-1.13-.91-1.95-2.39-2.7-3.63-.95-1.56-1.84-3.19-2.2-4.99-.76-3.77,2.4-6.13,5.17-8.03,1.11-.76,1.61-2.2.9-3.42-.64-1.1-2.3-1.66-3.42-.9h0Z"/>
  <path class="cls-1" d="M155.62,60.12c-4.37,2.08-8.09,5.38-10.79,9.39-2.55,3.79-4.94,9.95-.67,13.51,1.95,1.62,4.5,1.98,6.96,1.93,2.64-.06,5.38-.26,7.84-1.27,2.3-.94,4.39-2.59,5.43-4.91.61-1.35.98-2.95.5-4.41-.45-1.37-1.56-2.34-2.82-2.96-1.47-.73-3.02-1.24-4.62-1.59-.38-.08-1.15-.23-1.13-.33,0,0,.2.15.21.19.21.61.02.57.29.24,1.5-1.88,3.67-3.34,5.9-4.21,2.63-1.02,2.23-4.67-.66-4.91-4.59-.38-9.71.29-12.49,4.42-2.45,3.64-1.46,9.67,1.87,12.51,1.78,1.52,4.36,2.04,6.47.84,2.22-1.26,2.89-3.99,1.78-6.22s-3.61-3.25-6.02-2.81-4.16,2.14-5.37,4.11c-.65,1.04-1.36,2.28-1.61,3.48-.36,1.74.53,3.36,2.15,4.05,2.59,1.11,5.67.54,8.15-.56,1.8-.8,1.45-3.42,0-4.32-2.98-1.85-6.37-2.85-9.87-3v5c2.86.06,5.82-2.81,4.22-5.71-.63-1.14-1.96-1.9-3.26-1.91-1.6-.01-2.66.95-3.22,2.36-.42,1.05.3,2.26,1.15,2.82,3.41,2.25,7.36,3.47,11.43,3.7,1.35.07,2.5-1.2,2.5-2.5,0-1.42-1.15-2.43-2.5-2.5-3.21-.18-6.23-1.25-8.91-3.02l1.15,2.82-1.6,1.31c-.23.03-.42-.03-.59-.19-.51-.31-.93-1.26-.58-1.85.17-.29.61-.33.21-.34-1.35-.03-2.5,1.17-2.5,2.5,0,1.4,1.15,2.44,2.5,2.5,2.64.11,5.11.93,7.35,2.32v-4.32c-.64.29-1.38.43-2.08.45-.34,0-.7.01-1.04-.03-.12-.03-.24-.05-.36-.07-.79-.27-.6.22.59,1.5.17-.15.34-.72.45-.93.16-.3.32-.6.49-.89.29-.48.64-1.02,1.05-1.36.44-.37,1.06-.58,1.33-.56.32.01.37.12.09-.05.1.06.38.3.22.17.08.3.09.33.04.08,0-.11.04-.21.11-.3.02-.1.55-.34.03-.04.22-.08.18-.08-.11,0,.24-.03.21-.03-.1-.02.27.07-.11-.03-.11-.03-1.67-.83-2.56-4.66-1.2-6.44.71-.93,1.85-1.49,2.99-1.79,1.69-.44,3.48-.32,5.2-.18l-.66-4.91c-2.3.89-4.35,2.06-6.25,3.64s-3.99,3.86-3.37,6.52,3.02,3.22,5.31,3.81c.93.24,1.87.54,2.72,1,.18.09.43.28.44.26.01-.05-.55-.58-.13-.41.17.07-.28,1.05-.29,1.06-.76,1.46-2.3,2.27-4.04,2.7-1.96.48-4.13.59-6.14.46-.59-.04-1.58-.24-2.01-.52-.18-.12-.42-.34-.5-.46,0-.01-.21-.42-.12-.16-.1-.26-.18-.54-.22-.81.04.34.01-.26.01-.33,0-.24,0-.49.04-.73-.04.25.06-.23.06-.22.06-.3.15-.59.24-.88.27-.86.67-1.6,1.16-2.45,2.29-3.93,5.72-6.97,9.83-8.93,1.22-.58,1.54-2.32.9-3.42-.73-1.25-2.2-1.48-3.42-.9h0Z"/>
  <path class="cls-1" d="M194.05,232.7c6.15,4.45,13.21,7.7,20.61,9.46s15.54,2.42,22.81-.09,12.53-8.32,17.38-14.13,9.73-12.38,14-18.99c4.75-7.37,8.97-15.08,12.64-23.05.56-1.23.35-2.69-.9-3.42-1.08-.63-2.85-.34-3.42.9-6.19,13.43-13.95,26.18-23.18,37.75-2.27,2.85-4.61,5.66-7.09,8.33s-4.94,4.94-8.03,6.59c-6.14,3.29-13.69,3.09-20.36,1.83-7.94-1.5-15.39-4.76-21.94-9.5-1.09-.79-2.79-.19-3.42.9-.74,1.26-.2,2.63.9,3.42h0Z"/>
  <path class="cls-1" d="M275.81,184.36c2.87,2.92,5.88,5.71,9.01,8.36.52.44,1.07.73,1.77.73.61,0,1.35-.27,1.77-.73.85-.93,1.07-2.63,0-3.54-3.13-2.65-6.13-5.44-9.01-8.36-.92-.93-2.63-.99-3.54,0s-.98,2.54,0,3.54h0Z"/>
  <path class="cls-1" d="M317.86,232.12c-13.87,7.94-28.08,15.68-43.6,19.86-16.31,4.4-33.39,4.08-50.12,3.09s-33.26-3.02-49.7-5.91c-16.46-2.89-32.77-6.61-48.91-10.94s-32.31-9.31-48.25-14.67c-1.95-.66-3.9-1.32-5.85-1.99-1.28-.44-2.73.5-3.08,1.75-.38,1.37.46,2.64,1.75,3.08,16.05,5.51,32.23,10.63,48.59,15.16s32.84,8.45,49.51,11.55,33.55,5.39,50.49,6.62,34.67,1.94,51.57-1.63c15.92-3.37,30.68-10.71,44.78-18.61,1.79-1,3.57-2.02,5.35-3.04,2.79-1.6.28-5.92-2.52-4.32h0Z"/>
</svg>